<svg xmlns="http://www.w3.org/2000/svg" version="1.0" width="375.000000" height="138.000000" preserveAspectRatio="xMidYMid meet" style=""><rect id="backgroundrect" width="100%" height="100%" x="0" y="0" fill="none" stroke="none"/>


<g class="currentLayer" style=""><title>Layer 1</title><g transform="translate(0,138) scale(0.10000000149011612,-0.10000000149011612) " fill="#ffffff" stroke="none" id="svg_1" class="" fill-opacity="1">
<path d="M470 1031 c-14 -27 -14 -635 0 -662 8 -13 21 -19 45 -19 l35 0 0 150 0 150 220 0 220 0 0 -150 0 -150 35 0 c24 0 37 6 45 19 14 27 14 635 0 662 -9 15 -22 19 -70 19 l-60 0 0 -100 0 -100 -170 0 -170 0 0 100 0 100 -60 0 c-48 0 -61 -4 -70 -19z" id="svg_2" fill="#ffffff" fill-opacity="1"/>
<path d="M1472 723 l3 -218 35 0 35 0 3 88 3 87 194 0 195 0 0 -90 0 -90 34 0 c22 0 36 6 40 16 8 20 8 388 0 408 -4 10 -18 16 -40 16 l-34 0 0 -95 0 -95 -195 0 -194 0 -3 93 -3 92 -38 3 -37 3 2 -218z" id="svg_3" fill="#ffffff" fill-opacity="1"/>
<path d="M2064 927 c-2 -7 -3 -105 -2 -217 l3 -205 35 0 35 0 3 73 3 72 167 0 c180 0 227 8 269 44 24 21 28 32 31 94 4 68 3 73 -25 101 -16 16 -47 34 -69 40 -58 16 -443 15 -450 -2z m436 -70 c26 -13 36 -50 26 -92 -9 -36 -55 -45 -227 -45 l-159 0 0 75 0 75 168 0 c114 0 175 -4 192 -13z" id="svg_4" fill="#ffffff" fill-opacity="1"/>
<path d="M2755 931 c-94 -23 -105 -45 -105 -212 0 -122 2 -139 21 -162 31 -41 103 -57 248 -57 143 0 194 11 234 48 l27 26 0 148 c0 143 -1 150 -24 173 -13 13 -41 28 -62 34 -43 12 -292 13 -339 2z m310 -75 l35 -15 0 -119 c0 -99 -3 -122 -17 -133 -18 -16 -228 -26 -288 -15 -59 11 -65 25 -65 144 0 59 4 113 9 120 13 22 61 30 179 31 77 1 123 -4 147 -13z" id="svg_5" fill="#ffffff" fill-opacity="1"/>
<path d="M3397 934 c-4 -4 -7 -78 -7 -165 0 -193 1 -190 -125 -201 -26 -3 -30 -7 -30 -33 0 -29 2 -30 47 -33 65 -4 126 14 160 48 l28 29 -2 178 -3 178 -30 3 c-17 2 -34 0 -38 -4z" id="svg_6" fill="#ffffff" fill-opacity="1"/>
</g></g></svg>